<?xml version="1.0" standalone="no"?>
<!DOCTYPE svg PUBLIC "-//W3C//DTD SVG 20010904//EN"
 "http://www.w3.org/TR/2001/REC-SVG-20010904/DTD/svg10.dtd">
<svg version="1.0" xmlns="http://www.w3.org/2000/svg"
 width="1024.000000pt" height="1024.000000pt" viewBox="0 0 1024.000000 1024.000000"
 preserveAspectRatio="xMidYMid meet">

<g transform="translate(0.000000,1024.000000) scale(0.100000,-0.100000)"
fill="#22c55e" stroke="none">
<path d="M0 5120 l0 -5120 5120 0 5120 0 0 5120 0 5120 -5120 0 -5120 0 0
-5120z m5560 3826 c425 -53 812 -166 1165 -343 401 -200 819 -508 1096 -808
325 -352 646 -862 803 -1277 131 -347 203 -643 241 -998 25 -231 17 -604 -19
-840 -69 -450 -220 -910 -399 -1208 -38 -64 -92 -155 -119 -202 -108 -185
-246 -356 -502 -624 -256 -269 -443 -429 -671 -575 -77 -49 -162 -105 -190
-125 -62 -43 -227 -129 -280 -146 -22 -7 -65 -25 -95 -40 -153 -77 -476 -181
-706 -229 -355 -73 -368 -74 -749 -75 -392 -1 -442 4 -730 65 -309 65 -348 76
-630 177 -179 64 -316 129 -485 229 -74 44 -166 98 -205 120 -71 42 -105 67
-332 247 -303 240 -648 618 -837 919 -88 140 -108 167 -115 162 -5 -2 -14 10
-21 28 -7 17 -36 79 -65 137 -166 332 -267 638 -349 1051 -50 253 -60 384 -53
708 8 363 32 536 117 853 162 598 427 1091 839 1558 102 116 317 324 416 404
381 308 734 505 1166 654 285 98 560 156 884 187 188 18 643 13 825 -9z"/>
<path d="M4945 8804 c-330 -24 -449 -39 -649 -84 -155 -34 -415 -114 -560
-171 -160 -64 -471 -221 -588 -298 -458 -299 -841 -696 -1139 -1176 -156 -252
-259 -472 -343 -735 -128 -396 -186 -755 -186 -1155 0 -307 21 -462 109 -821
120 -485 351 -961 661 -1361 107 -138 327 -381 418 -461 347 -305 709 -533
1084 -681 93 -37 370 -124 464 -146 447 -105 744 -133 1089 -101 418 39 583
70 902 172 520 165 935 414 1358 812 328 309 550 599 743 973 193 372 336 838
383 1244 8 62 13 221 13 365 0 276 -17 449 -69 695 -119 562 -319 1000 -682
1496 -311 424 -658 729 -1138 1000 -315 178 -714 320 -1060 379 -239 40 -637
67 -810 54z m595 -383 c362 -51 651 -141 980 -306 636 -318 1134 -826 1475
-1505 151 -301 272 -681 324 -1015 44 -283 41 -599 -10 -885 -80 -461 -231
-858 -463 -1219 -124 -193 -176 -261 -331 -436 -251 -285 -514 -491 -871 -683
-437 -235 -948 -374 -1431 -389 -686 -22 -1401 184 -1933 556 -377 263 -537
417 -796 764 -306 409 -519 915 -609 1448 -104 620 15 1330 325 1950 119 237
224 391 415 613 66 76 129 150 139 163 72 93 423 373 616 492 320 196 749 362
1100 425 127 22 181 30 350 50 19 2 154 3 300 1 205 -2 300 -8 420 -24z"/>
<path d="M4845 8284 c-250 -26 -338 -40 -490 -79 -283 -73 -441 -132 -687
-256 -446 -225 -845 -574 -1130 -989 -255 -369 -437 -836 -509 -1305 -33 -214
-38 -576 -10 -793 22 -173 78 -415 138 -597 79 -240 286 -643 448 -870 243
-341 620 -667 1030 -891 341 -186 671 -290 1115 -350 90 -12 178 -15 400 -11
266 4 297 6 457 35 740 136 1337 468 1817 1012 137 155 161 185 255 328 172
259 330 622 412 945 116 462 127 864 34 1322 -68 334 -249 768 -447 1070 -340
519 -713 858 -1233 1118 -273 136 -578 236 -864 283 -135 22 -193 26 -426 29
-148 2 -288 1 -310 -1z m676 -237 c285 -44 521 -119 814 -262 193 -95 246
-127 435 -269 872 -654 1352 -1831 1150 -2818 -69 -335 -111 -457 -252 -743
-239 -482 -668 -938 -1143 -1212 -288 -167 -708 -308 -1035 -348 -147 -18
-580 -21 -728 -4 -296 32 -638 137 -973 297 -94 45 -358 213 -464 296 -238
184 -523 497 -662 726 -71 116 -197 364 -248 485 -47 111 -124 362 -151 488
-44 212 -59 560 -35 812 7 72 26 199 43 284 53 277 122 472 274 771 145 288
292 488 526 715 217 212 444 374 688 492 240 116 371 165 615 232 283 78 391
91 725 87 210 -3 284 -8 421 -29z"/>
<path d="M4890 7920 c-387 -23 -869 -186 -1279 -433 -548 -330 -935 -860
-1141 -1562 -103 -351 -119 -848 -41 -1232 29 -141 91 -351 135 -458 49 -118
173 -355 242 -461 79 -124 220 -307 305 -398 124 -133 361 -326 399 -326 6 0
10 179 10 498 0 273 3 520 6 548 6 50 6 51 -30 73 -35 22 -44 23 -338 24 -167
1 -329 -1 -361 -5 l-57 -7 -26 39 c-14 21 -41 84 -60 141 -62 181 -79 261
-135 634 -12 81 -11 355 1 490 22 233 73 467 120 550 15 28 37 88 49 134 13
55 41 121 80 193 33 60 72 140 86 179 39 102 42 103 234 93 87 -5 165 -8 174
-6 9 2 30 28 47 58 34 61 74 90 136 100 62 9 117 -3 169 -38 119 -79 148 -237
63 -334 -50 -56 -101 -79 -183 -78 -99 0 -164 41 -197 123 l-14 35 -169 -3
c-134 -2 -179 -6 -216 -21 -27 -10 -50 -15 -53 -12 -4 3 -6 -2 -6 -12 0 -9 -3
-15 -8 -12 -4 2 -7 -32 -7 -77 0 -66 -5 -95 -27 -148 -17 -41 -29 -93 -32
-137 l-5 -72 125 0 124 0 15 37 c22 52 52 82 110 109 91 43 171 28 252 -48 84
-80 104 -172 58 -265 -57 -113 -185 -162 -297 -114 -49 21 -104 78 -114 118
l-7 26 -155 -6 c-85 -3 -156 -8 -158 -10 -13 -12 -37 -408 -38 -607 0 -257 14
-451 44 -575 29 -119 86 -305 98 -317 6 -6 67 -15 135 -21 101 -8 160 -7 313
6 104 10 196 17 205 17 9 0 57 -41 107 -92 l92 -91 0 -623 0 -622 93 -50 c50
-27 96 -47 100 -45 4 3 7 338 6 745 l-2 741 -41 36 c-23 20 -90 87 -151 150
-126 130 -225 206 -269 206 -33 0 -62 33 -72 80 -9 46 19 74 81 81 42 5 55 2
82 -19 45 -33 417 -396 477 -464 l48 -56 -7 -787 c-6 -664 -5 -789 6 -796 8
-4 41 -18 74 -30 33 -12 67 -24 75 -28 13 -5 15 135 15 1233 l0 1239 -40 14
c-55 18 -173 97 -224 149 -68 70 -136 179 -171 275 -29 79 -33 104 -37 219 -4
109 -2 143 15 212 40 156 112 268 237 368 104 83 205 131 310 150 250 43 464
-17 633 -179 122 -116 190 -246 219 -413 28 -170 -5 -339 -99 -497 -80 -134
-206 -246 -330 -291 -42 -16 -61 -28 -58 -37 3 -7 5 -589 5 -1293 l0 -1280 55
-7 c30 -4 70 -9 88 -12 l32 -5 0 1205 0 1204 174 0 175 0 15 53 c40 136 191
213 311 158 53 -24 131 -109 144 -157 32 -115 -20 -227 -131 -285 -81 -41
-216 -13 -280 60 -24 27 -30 28 -144 34 -65 4 -118 5 -119 4 0 -1 1 -120 3
-264 l4 -263 123 0 123 0 7 30 c9 41 84 113 133 128 21 7 61 12 88 12 146 0
266 -187 207 -321 -58 -130 -178 -177 -315 -122 -42 17 -95 71 -104 107 -5 20
-14 24 -57 30 -29 3 -88 6 -132 6 l-80 0 0 -810 c0 -445 3 -810 8 -810 4 0 27
0 51 0 l44 0 7 78 c8 94 39 233 73 327 81 226 240 395 475 505 116 55 197 69
457 84 187 10 233 16 271 33 92 41 159 127 159 204 0 20 -17 69 -39 116 -52
107 -58 152 -32 227 11 32 32 74 47 93 14 19 24 37 21 39 -3 3 -43 12 -88 20
-46 8 -90 16 -96 19 -15 5 -18 141 -5 163 5 7 59 18 136 27 137 16 176 24 176
34 0 3 -12 40 -26 81 -30 89 -53 267 -38 300 8 18 43 34 159 75 149 51 228 86
239 104 4 5 -17 40 -46 78 -52 68 -176 247 -336 483 -47 69 -96 148 -108 176
l-24 50 22 115 c26 135 31 369 9 489 -41 231 -157 470 -314 648 -73 83 -253
251 -312 291 -131 89 -314 167 -490 207 -112 26 -138 28 -395 32 -158 2 -342
-1 -433 -8 -88 -6 -161 -9 -164 -6 -7 7 134 96 178 111 63 23 277 53 414 60
458 22 876 -133 1198 -444 261 -252 394 -485 474 -831 34 -150 38 -355 9 -533
-23 -139 -26 -132 86 -282 90 -121 225 -317 336 -485 92 -141 96 -158 56 -238
-31 -63 -74 -89 -259 -157 -71 -27 -131 -49 -132 -49 -1 -1 16 -64 37 -141 50
-179 50 -188 0 -237 -23 -21 -50 -38 -60 -38 -19 0 -19 -1 2 -41 14 -27 23
-67 26 -113 l4 -71 -63 -30 c-60 -28 -64 -32 -67 -67 -2 -23 7 -62 23 -102 50
-124 50 -230 0 -331 -49 -100 -181 -193 -305 -214 -30 -5 -125 -12 -211 -16
-304 -12 -488 -83 -659 -255 -129 -129 -197 -288 -216 -499 -8 -94 -22 -87
137 -70 139 14 419 73 554 116 373 120 688 307 985 584 175 163 304 311 427
490 296 430 439 861 459 1384 12 294 -55 680 -169 986 -147 388 -370 732 -672
1034 -302 302 -577 478 -985 630 -210 78 -496 140 -715 155 -163 11 -188 11
-375 0z m675 -499 c77 -35 138 -132 138 -221 0 -204 -255 -300 -390 -146 -17
19 -34 48 -38 65 l-7 31 -576 2 c-317 2 -733 3 -924 3 -379 0 -387 1 -358 52
8 14 34 39 58 56 l42 31 248 8 c260 9 1402 3 1462 -8 33 -5 37 -3 58 35 24 42
69 83 112 100 41 16 131 12 175 -8z m-1408 -442 l43 -39 478 0 479 0 28 -27
c15 -16 38 -44 50 -63 46 -72 38 -70 290 -75 126 -3 244 -8 263 -11 39 -7 72
-52 72 -96 l0 -28 -267 -1 c-329 0 -337 -1 -366 -54 -26 -45 -75 -82 -122 -91
-83 -15 -185 76 -185 165 0 51 31 128 55 137 25 10 17 21 -12 18 -16 -2 -190
-5 -388 -7 l-359 -4 -19 -34 c-77 -144 -271 -119 -312 39 -16 61 -7 107 31
152 68 80 166 88 241 19z m-850 -11 c16 -13 17 -66 3 -103 -10 -27 -12 -27
-85 -23 -41 2 -79 8 -85 14 -15 15 10 75 45 110 23 23 32 25 68 20 22 -4 47
-12 54 -18z m2683 -630 c85 -41 184 -141 228 -229 146 -292 -53 -642 -378
-666 -171 -13 -365 89 -435 227 -79 159 -82 312 -9 467 56 119 181 212 309
233 106 16 211 5 285 -32z m-2832 -798 c64 -39 94 -127 72 -211 -13 -48 -45
-89 -69 -89 -14 0 -16 -24 -14 -207 2 -115 8 -234 14 -266 16 -89 10 -97 -70
-97 l-68 0 -6 128 c-4 70 -7 197 -7 282 l0 156 -30 11 c-36 13 -67 63 -76 119
-7 46 18 116 52 145 60 52 145 64 202 29z m492 -243 c53 -35 73 -78 73 -155 0
-49 -6 -79 -22 -110 -54 -106 -216 -105 -295 1 -32 44 -30 160 4 210 50 74
171 102 240 54z"/>
<path d="M5429 7295 c-57 -31 -64 -129 -13 -174 60 -51 164 4 164 87 -1 79
-81 125 -151 87z"/>
<path d="M4003 6902 c-22 -14 -33 -60 -22 -89 18 -48 59 -57 103 -22 49 39 24
119 -37 119 -18 0 -37 -4 -44 -8z"/>
<path d="M5036 6759 c-18 -21 -26 -42 -26 -68 0 -49 24 -71 78 -71 32 0 45 6
61 26 68 87 -43 197 -113 113z"/>
<path d="M5739 6220 c-89 -16 -179 -82 -220 -162 -25 -49 -36 -132 -27 -196
24 -164 131 -260 298 -270 132 -7 233 48 296 160 27 49 29 61 29 153 0 85 -3
106 -23 143 -73 136 -202 199 -353 172z m137 -139 c80 -37 136 -144 114 -220
-23 -80 -96 -131 -189 -131 -59 0 -94 15 -132 57 -39 41 -49 66 -49 118 0 140
133 232 256 176z"/>
<path d="M5762 5957 c-48 -51 -18 -127 51 -127 33 0 77 40 77 70 0 24 -18 61
-34 72 -23 16 -73 8 -94 -15z"/>
<path d="M3026 5438 c-23 -33 -20 -65 8 -84 35 -22 69 -15 80 19 22 62 -52
117 -88 65z"/>
<path d="M3500 5200 c-26 -26 -26 -72 0 -95 28 -25 85 -25 105 1 50 66 -46
153 -105 94z"/>
<path d="M3425 6646 c-50 -50 -41 -141 19 -177 47 -29 79 -24 114 16 37 42 50
96 31 132 -29 55 -122 71 -164 29z"/>
<path d="M4312 6395 c-216 -47 -383 -205 -437 -415 -22 -83 -15 -227 14 -321
51 -161 202 -314 365 -371 76 -26 262 -25 342 2 88 30 180 95 246 174 105 125
144 239 135 396 -8 160 -57 272 -166 381 -141 140 -314 194 -499 154z m263
-237 c58 -30 124 -97 156 -160 17 -32 24 -65 27 -133 5 -119 -19 -187 -93
-261 -82 -82 -122 -99 -235 -99 -84 0 -101 3 -145 27 -80 42 -131 93 -167 165
-27 55 -32 77 -32 137 -1 161 81 283 227 337 75 28 193 22 262 -13z"/>
<path d="M4350 6028 c-133 -68 -157 -239 -46 -335 75 -67 174 -66 254 3 173
147 -7 434 -208 332z"/>
<path d="M3166 6027 c-72 -72 -23 -207 75 -207 32 0 42 6 65 35 16 21 28 53
31 79 5 37 1 48 -24 76 -22 25 -39 33 -75 37 -40 5 -50 2 -72 -20z"/>
<path d="M4334 3871 l1 -1245 65 -11 c36 -6 70 -14 76 -18 7 -4 15 1 19 11 3
9 5 577 4 1262 l-2 1245 -82 0 -81 0 0 -1244z"/>
<path d="M5370 5024 c-48 -20 -70 -51 -70 -99 0 -47 19 -79 61 -100 111 -58
232 122 127 188 -37 24 -80 28 -118 11z"/>
<path d="M5383 4320 c-28 -12 -53 -49 -59 -91 -7 -45 25 -96 73 -115 46 -20
78 -11 120 31 28 28 33 40 33 78 0 66 -30 98 -96 103 -27 2 -59 0 -71 -6z"/>
<path d="M7034 2134 c-18 -14 -18 -15 4 -4 12 6 22 13 22 15 0 8 -5 6 -26 -11z"/>
<path d="M6885 2050 c-3 -6 1 -7 9 -4 18 7 21 14 7 14 -6 0 -13 -4 -16 -10z"/>
<path d="M6660 1930 c-9 -6 -10 -10 -3 -10 6 0 15 5 18 10 8 12 4 12 -15 0z"/>
<path d="M6590 1900 c-19 -11 -30 -19 -25 -19 6 0 26 8 45 19 19 11 31 19 25
19 -5 0 -26 -8 -45 -19z"/>
<path d="M6520 1870 c-8 -5 -10 -10 -5 -10 6 0 17 5 25 10 8 5 11 10 5 10 -5
0 -17 -5 -25 -10z"/>
<path d="M6470 1850 c-8 -5 -10 -10 -5 -10 6 0 17 5 25 10 8 5 11 10 5 10 -5
0 -17 -5 -25 -10z"/>
<path d="M6405 1825 c-16 -8 -23 -14 -15 -14 8 0 26 6 40 14 32 18 15 18 -25
0z"/>
<path d="M6198 1753 c7 -3 16 -2 19 1 4 3 -2 6 -13 5 -11 0 -14 -3 -6 -6z"/>
<path d="M5838 1653 c7 -3 16 -2 19 1 4 3 -2 6 -13 5 -11 0 -14 -3 -6 -6z"/>
<path d="M5788 1643 c7 -3 16 -2 19 1 4 3 -2 6 -13 5 -11 0 -14 -3 -6 -6z"/>
</g>
</svg>
